<?xml version="1.0" encoding="iso-8859-1"?>
<!-- Generator: Adobe Illustrator 27.9.0, SVG Export Plug-In . SVG Version: 6.00 Build 0)  -->
<svg version="1.1" baseProfile="basic" xmlns="http://www.w3.org/2000/svg" xmlns:xlink="http://www.w3.org/1999/xlink" x="0px"
	 y="0px" viewBox="0 0 120 120" xml:space="preserve">
<g id="&#x421;&#x43B;&#x43E;&#x439;_1">
	<rect x="7" y="96" style="opacity:0.35;" width="106" height="4"/>
	<rect x="7" y="24" style="fill:#0037FF;" width="106" height="72"/>
	<path style="opacity:0.35;" d="M59.427,59.159c-0.047,3.741,3.333,5.826,5.879,7.067c2.615,1.273,3.495,2.09,3.486,3.228
		c-0.02,1.743-2.087,2.512-4.023,2.541c-3.376,0.051-5.338-0.911-6.897-1.64l-1.215,5.689c1.566,0.72,4.463,1.351,7.47,1.378
		c7.054,0,11.672-3.483,11.696-8.882c0.027-6.853-9.479-7.233-9.414-10.296c0.022-0.928,0.908-1.92,2.85-2.172
		c0.962-0.128,3.615-0.224,6.622,1.161l1.181-5.504c-1.618-0.591-3.698-1.154-6.287-1.154
		C64.137,50.577,59.465,54.107,59.427,59.159 M88.408,51.051c-1.289,0-2.374,0.752-2.859,1.904L75.473,77.018h7.049l1.403-3.877
		h8.616l0.814,3.877h6.213l-5.423-25.967H88.408 M89.395,58.067l2.034,9.752h-5.573L89.395,58.067 M50.881,51.051l-5.557,25.967
		h6.718l5.555-25.967H50.881 M40.941,51.051l-6.994,17.674L31.12,53.698c-0.331-1.678-1.642-2.647-3.099-2.647H16.589l-0.157,0.754
		c2.347,0.51,5.014,1.331,6.629,2.21c0.989,0.537,1.271,1.007,1.595,2.282l5.358,20.723h7.101L48,51.053L40.941,51.051"/>
	<path style="fill:#FFFFFF;" d="M59.427,55.159c-0.047,3.741,3.333,5.826,5.879,7.067c2.615,1.273,3.495,2.09,3.486,3.228
		c-0.02,1.743-2.087,2.512-4.023,2.541c-3.376,0.051-5.338-0.911-6.897-1.64l-1.215,5.689c1.566,0.72,4.463,1.351,7.47,1.378
		c7.054,0,11.672-3.483,11.696-8.882c0.027-6.853-9.479-7.233-9.414-10.296c0.022-0.928,0.908-1.92,2.85-2.172
		c0.962-0.128,3.615-0.224,6.622,1.161l1.181-5.504c-1.618-0.591-3.698-1.154-6.287-1.154
		C64.137,46.577,59.465,50.107,59.427,55.159 M88.408,47.051c-1.289,0-2.374,0.752-2.859,1.904L75.473,73.018h7.049l1.403-3.877
		h8.616l0.814,3.877h6.213l-5.423-25.967H88.408 M89.395,54.067l2.034,9.752h-5.573L89.395,54.067 M50.881,47.051l-5.557,25.967
		h6.718l5.555-25.967H50.881 M40.941,47.051l-6.994,17.674L31.12,49.698c-0.331-1.678-1.642-2.647-3.099-2.647H16.589l-0.157,0.754
		c2.347,0.51,5.014,1.331,6.629,2.21c0.989,0.537,1.271,1.007,1.595,2.282l5.358,20.723h7.101L48,47.053L40.941,47.051"/>
</g>
<g id="&#x421;&#x43B;&#x43E;&#x439;_2">
</g>
</svg>